name Run_300 02_newCOP3_v24.mot
datacolumns 19
datarows 84
range 1.4825 1.524
DataType=double
version=3
OpenSimVersion=4.3-2021-08-27-4bc7ad9
endheader
time	R_ground_force_vx	R_ground_force_vy	R_ground_force_vz	R_ground_force_px	R_ground_force_py	R_ground_force_pz	L_ground_force_vx	L_ground_force_vy	L_ground_force_vz	L_ground_force_px	L_ground_force_py	L_ground_force_pz	R_ground_torque_x	R_ground_torque_y	R_ground_torque_z	L_ground_torque_x	L_ground_torque_y	L_ground_torque_z
1.4825	-137.706024	1656.137329	-34.184795	1.24127	0	-0.289547	0	0	0	0	0	0	0	-3.16492	0	0	0	0
1.483	-136.149857	1658.322632	-34.025867	1.24025	0	-0.289562	0	0	0	0	0	0	0	-3.256664	0	0	0	0
1.4835	-134.592636	1660.448608	-33.861736	1.23923	0	-0.289578	0	0	0	0	0	0	0	-3.348084	0	0	0	0
1.484	-133.03421	1662.515869	-33.692406	1.238209	0	-0.289595	0	0	0	0	0	0	0	-3.439161	0	0	0	0
1.4845	-131.474487	1664.525391	-33.517864	1.237188	0	-0.289612	0	0	0	0	0	0	0	-3.529874	0	0	0	0
1.485	-129.913315	1666.477539	-33.338108	1.236167	0	-0.289631	0	0	0	0	0	0	0	-3.620205	0	0	0	0
1.4855	-128.350525	1668.373047	-33.153118	1.235145	0	-0.28965	0	0	0	0	0	0	0	-3.710135	0	0	0	0
1.486	-126.785995	1670.212524	-32.962875	1.234123	0	-0.28967	0	0	0	0	0	0	0	-3.799645	0	0	0	0
1.4865	-125.219574	1671.99646	-32.767365	1.2331	0	-0.289692	0	0	0	0	0	0	0	-3.888719	0	0	0	0
1.487	-123.651146	1673.725342	-32.566551	1.232077	0	-0.289714	0	0	0	0	0	0	0	-3.97734	0	0	0	0
1.4875	-122.080627	1675.399658	-32.360409	1.231054	0	-0.289737	0	0	0	0	0	0	0	-4.065492	0	0	0	0
1.488	-120.507942	1677.019897	-32.148899	1.23003	0	-0.289762	0	0	0	0	0	0	0	-4.153157	0	0	0	0
1.4885	-118.93306	1678.586304	-31.931982	1.229006	0	-0.289787	0	0	0	0	0	0	0	-4.240322	0	0	0	0
1.489	-117.355965	1680.099487	-31.709618	1.227981	0	-0.289813	0	0	0	0	0	0	0	-4.326972	0	0	0	0
1.4895	-115.776703	1681.559692	-31.481758	1.226955	0	-0.289841	0	0	0	0	0	0	0	-4.413092	0	0	0	0
1.49	-114.195328	1682.967285	-31.248354	1.225929	0	-0.289869	0	0	0	0	0	0	0	-4.498668	0	0	0	0
1.4905	-112.611938	1684.322632	-31.009354	1.224902	0	-0.289898	0	0	0	0	0	0	0	-4.583689	0	0	0	0
1.491	-111.026672	1685.625854	-30.764704	1.223875	0	-0.289929	0	0	0	0	0	0	0	-4.66814	0	0	0	0
1.4915	-109.439674	1686.877441	-30.514355	1.222847	0	-0.28996	0	0	0	0	0	0	0	-4.75201	0	0	0	0
1.492	-107.851135	1688.077637	-30.258253	1.221818	0	-0.289992	0	0	0	0	0	0	0	-4.835287	0	0	0	0
1.4925	-106.261253	1689.226563	-29.996344	1.220789	0	-0.290024	0	0	0	0	0	0	0	-4.917961	0	0	0	0
1.493	-104.670235	1690.324585	-29.72858	1.219759	0	-0.290058	0	0	0	0	0	0	0	-5.00002	0	0	0	0
1.4935	-103.078316	1691.371826	-29.454912	1.218729	0	-0.290092	0	0	0	0	0	0	0	-5.081455	0	0	0	0
1.494	-101.485718	1692.36853	-29.175301	1.217697	0	-0.290127	0	0	0	0	0	0	0	-5.162255	0	0	0	0
1.4945	-99.89267	1693.314941	-28.889704	1.216665	0	-0.290162	0	0	0	0	0	0	0	-5.242413	0	0	0	0
1.495	-98.29937700000001	1694.211182	-28.598091	1.215633	0	-0.290198	0	0	0	0	0	0	0	-5.321919	0	0	0	0
1.4955	-96.70605500000001	1695.057373	-28.300434	1.214599	0	-0.290234	0	0	0	0	0	0	0	-5.400764	0	0	0	0
1.496	-95.112869	1695.85376	-27.996719	1.213565	0	-0.290271	0	0	0	0	0	0	0	-5.478943	0	0	0	0
1.4965	-93.519989	1696.600464	-27.686935	1.212531	0	-0.290308	0	0	0	0	0	0	0	-5.556446	0	0	0	0
1.497	-91.92755099999999	1697.297485	-27.371082	1.211496	0	-0.290345	0	0	0	0	0	0	0	-5.633267	0	0	0	0
1.4975	-90.33564	1697.94519	-27.04917	1.21046	0	-0.290383	0	0	0	0	0	0	0	-5.7094	0	0	0	0
1.498	-88.744331	1698.543335	-26.721224	1.209423	0	-0.29042	0	0	0	0	0	0	0	-5.784839	0	0	0	0
1.4985	-87.153656	1699.092163	-26.387276	1.208386	0	-0.290458	0	0	0	0	0	0	0	-5.859577	0	0	0	0
1.499	-85.56360599999999	1699.591675	-26.047373	1.207348	0	-0.290495	0	0	0	0	0	0	0	-5.933611	0	0	0	0
1.4995	-83.974136	1700.041992	-25.701574	1.206309	0	-0.290532	0	0	0	0	0	0	0	-6.006935	0	0	0	0
1.5	-82.38517	1700.442993	-25.349957	1.20527	0	-0.29057	0	0	0	0	0	0	0	-6.079544	0	0	0	0
1.5005	-80.79658499999999	1700.794678	-24.992603	1.20423	0	-0.290607	0	0	0	0	0	0	0	-6.151435	0	0	0	0
1.501	-79.208229	1701.096924	-24.62962	1.203189	0	-0.290644	0	0	0	0	0	0	0	-6.222605	0	0	0	0
1.5015	-77.619934	1701.349731	-24.26112	1.202148	0	-0.29068	0	0	0	0	0	0	0	-6.293048	0	0	0	0
1.502	-76.031471	1701.552979	-23.887234	1.201105	0	-0.290716	0	0	0	0	0	0	0	-6.362764	0	0	0	0
1.5025	-74.442627	1701.706421	-23.508108	1.200063	0	-0.290752	0	0	0	0	0	0	0	-6.431749	0	0	0	0
1.503	-72.853127	1701.809814	-23.123899	1.199019	0	-0.290787	0	0	0	0	0	0	0	-6.5	0	0	0	0
1.5035	-71.262703	1701.863159	-22.734779	1.197974	0	-0.290822	0	0	0	0	0	0	0	-6.567516	0	0	0	0
1.504	-69.671066	1701.866089	-22.340937	1.196929	0	-0.290857	0	0	0	0	0	0	0	-6.634296	0	0	0	0
1.5045	-68.077934	1701.818237	-21.942566	1.195883	0	-0.290891	0	0	0	0	0	0	0	-6.700337	0	0	0	0
1.505	-66.48299400000001	1701.71936	-21.539877	1.194836	0	-0.290924	0	0	0	0	0	0	0	-6.765639	0	0	0	0
1.5055	-64.885948	1701.56897	-21.133093	1.193788	0	-0.290957	0	0	0	0	0	0	0	-6.830201	0	0	0	0
1.506	-63.28651	1701.366699	-20.722439	1.192739	0	-0.29099	0	0	0	0	0	0	0	-6.894022	0	0	0	0
1.5065	-61.684391	1701.112183	-20.308159	1.191689	0	-0.291023	0	0	0	0	0	0	0	-6.957103	0	0	0	0
1.507	-60.079311	1700.80481	-19.890497	1.190639	0	-0.291055	0	0	0	0	0	0	0	-7.019443	0	0	0	0
1.5075	-58.471016	1700.444214	-19.469706	1.189587	0	-0.291086	0	0	0	0	0	0	0	-7.081042	0	0	0	0
1.508	-56.859264	1700.029785	-19.046045	1.188535	0	-0.291118	0	0	0	0	0	0	0	-7.141901	0	0	0	0
1.5085	-55.243839	1699.560913	-18.619778	1.187481	0	-0.291149	0	0	0	0	0	0	0	-7.202021	0	0	0	0
1.509	-53.624546	1699.036987	-18.191164	1.186427	0	-0.29118	0	0	0	0	0	0	0	-7.261402	0	0	0	0
1.5095	-52.001213	1698.45752	-17.760469	1.185372	0	-0.291211	0	0	0	0	0	0	0	-7.320046	0	0	0	0
1.51	-50.373703	1697.821655	-17.327959	1.184315	0	-0.291242	0	0	0	0	0	0	0	-7.377954	0	0	0	0
1.5105	-48.741901	1697.129028	-16.893892	1.183258	0	-0.291273	0	0	0	0	0	0	0	-7.435127	0	0	0	0
1.511	-47.105728	1696.378784	-16.458529	1.1822	0	-0.291304	0	0	0	0	0	0	0	-7.491568	0	0	0	0
1.5115	-45.465137	1695.570435	-16.022116	1.181141	0	-0.291336	0	0	0	0	0	0	0	-7.547278	0	0	0	0
1.512	-43.820103	1694.703125	-15.584901	1.180081	0	-0.291367	0	0	0	0	0	0	0	-7.602259	0	0	0	0
1.5125	-42.170643	1693.776367	-15.147119	1.17902	0	-0.291399	0	0	0	0	0	0	0	-7.656514	0	0	0	0
1.513	-40.516804	1692.789429	-14.708993	1.177958	0	-0.291432	0	0	0	0	0	0	0	-7.710043	0	0	0	0
1.5135	-38.858654	1691.741821	-14.270739	1.176896	0	-0.291465	0	0	0	0	0	0	0	-7.762851	0	0	0	0
1.514	-37.196304	1690.63269	-13.832556	1.175832	0	-0.291498	0	0	0	0	0	0	0	-7.81494	0	0	0	0
1.5145	-35.529892	1689.461792	-13.394632	1.174768	0	-0.291532	0	0	0	0	0	0	0	-7.866312	0	0	0	0
1.515	-33.859585	1688.228394	-12.957138	1.173703	0	-0.291567	0	0	0	0	0	0	0	-7.916969	0	0	0	0
1.5155	-32.185574	1686.932007	-12.520229	1.172637	0	-0.291603	0	0	0	0	0	0	0	-7.966915	0	0	0	0
1.516	-30.508085	1685.572144	-12.084044	1.17157	0	-0.291639	0	0	0	0	0	0	0	-8.016152	0	0	0	0
1.5165	-28.827362	1684.148438	-11.648701	1.170502	0	-0.291677	0	0	0	0	0	0	0	-8.064685000000001	0	0	0	0
1.517	-27.143677	1682.660522	-11.214302	1.169434	0	-0.291715	0	0	0	0	0	0	0	-8.112513999999999	0	0	0	0
1.5175	-25.457323	1681.108032	-10.780931	1.168365	0	-0.291755	0	0	0	0	0	0	0	-8.159643000000001	0	0	0	0
1.518	-23.768618	1679.490723	-10.348651	1.167295	0	-0.291795	0	0	0	0	0	0	0	-8.206077000000001	0	0	0	0
1.5185	-22.077894	1677.80835	-9.917503	1.166224	0	-0.291837	0	0	0	0	0	0	0	-8.251815000000001	0	0	0	0
1.519	-20.3855	1676.060791	-9.487513999999999	1.165153	0	-0.291879	0	0	0	0	0	0	0	-8.296863999999999	0	0	0	0
1.5195	-18.691803	1674.247925	-9.058688	1.16408	0	-0.291923	0	0	0	0	0	0	0	-8.341224	0	0	0	0
1.52	-16.997175	1672.369751	-8.631011000000001	1.163007	0	-0.291968	0	0	0	0	0	0	0	-8.384899000000001	0	0	0	0
1.5205	-15.302009	1670.42627	-8.204451000000001	1.161933	0	-0.292014	0	0	0	0	0	0	0	-8.427892	0	0	0	0
1.521	-13.606691	1668.41748	-7.778955	1.160859	0	-0.292061	0	0	0	0	0	0	0	-8.470205999999999	0	0	0	0
1.5215	-11.911624	1666.343628	-7.354459	1.159783	0	-0.292109	0	0	0	0	0	0	0	-8.511843000000001	0	0	0	0
1.522	-10.217202	1664.204834	-6.930879	1.158707	0	-0.292159	0	0	0	0	0	0	0	-8.552806	0	0	0	0
1.5225	-8.523823999999999	1662.001343	-6.508115	1.15763	0	-0.292209	0	0	0	0	0	0	0	-8.593097	0	0	0	0
1.523	-6.83188	1659.733643	-6.086058	1.156552	0	-0.292261	0	0	0	0	0	0	0	-8.632719	0	0	0	0
1.5235	-5.141756	1657.401855	-5.664582	1.155474	0	-0.292313	0	0	0	0	0	0	0	-8.671673999999999	0	0	0	0
1.524	-3.453823	1655.006348	-5.243553	1.154394	0	-0.292367	0	0	0	0	0	0	0	-8.709963	0	0	0	0
